<mxfile host="app.diagrams.net" modified="2023-10-07T06:33:44.044Z" agent="Mozilla/5.0 (Windows NT 10.0; Win64; x64) AppleWebKit/537.36 (KHTML, like Gecko) Chrome/117.0.0.0 Safari/537.36" etag="d6FEi_jtA6vMHwbzmNnd" version="22.0.4" type="github">
  <diagram id="R2lEEEUBdFMjLlhIrx00" name="Page-1">
    <mxGraphModel dx="618" dy="297" grid="1" gridSize="10" guides="1" tooltips="1" connect="1" arrows="1" fold="1" page="1" pageScale="1" pageWidth="850" pageHeight="1100" math="0" shadow="0" extFonts="Permanent Marker^https://fonts.googleapis.com/css?family=Permanent+Marker">
      <root>
        <mxCell id="0" />
        <mxCell id="1" parent="0" />
        <mxCell id="cfvaVu8GxkP0LwsnPaUr-1" value="&lt;font style=&quot;vertical-align: inherit;&quot;&gt;&lt;font style=&quot;vertical-align: inherit;&quot;&gt;usuario&lt;br&gt;&lt;br&gt;&lt;/font&gt;&lt;/font&gt;" style="whiteSpace=wrap;html=1;align=center;" vertex="1" parent="1">
          <mxGeometry x="250" y="230" width="70" height="30" as="geometry" />
        </mxCell>
        <mxCell id="cfvaVu8GxkP0LwsnPaUr-3" style="edgeStyle=orthogonalEdgeStyle;rounded=0;orthogonalLoop=1;jettySize=auto;html=1;entryX=0;entryY=0.5;entryDx=0;entryDy=0;endArrow=none;endFill=0;" edge="1" parent="1" source="cfvaVu8GxkP0LwsnPaUr-2" target="cfvaVu8GxkP0LwsnPaUr-1">
          <mxGeometry relative="1" as="geometry" />
        </mxCell>
        <mxCell id="cfvaVu8GxkP0LwsnPaUr-2" value="&lt;font style=&quot;vertical-align: inherit;&quot;&gt;&lt;font style=&quot;vertical-align: inherit;&quot;&gt;&lt;font style=&quot;vertical-align: inherit;&quot;&gt;&lt;font style=&quot;vertical-align: inherit;&quot;&gt;id_usuario&lt;/font&gt;&lt;/font&gt;&lt;/font&gt;&lt;/font&gt;" style="ellipse;whiteSpace=wrap;html=1;align=center;fontStyle=4;" vertex="1" parent="1">
          <mxGeometry x="100" y="230" width="80" height="30" as="geometry" />
        </mxCell>
        <mxCell id="cfvaVu8GxkP0LwsnPaUr-5" style="edgeStyle=orthogonalEdgeStyle;rounded=0;orthogonalLoop=1;jettySize=auto;html=1;entryX=0.5;entryY=0;entryDx=0;entryDy=0;endArrow=none;endFill=0;exitX=1;exitY=0.5;exitDx=0;exitDy=0;" edge="1" parent="1" source="cfvaVu8GxkP0LwsnPaUr-8" target="cfvaVu8GxkP0LwsnPaUr-1">
          <mxGeometry relative="1" as="geometry">
            <mxPoint x="190" y="185" as="sourcePoint" />
          </mxGeometry>
        </mxCell>
        <mxCell id="cfvaVu8GxkP0LwsnPaUr-8" value="nombre" style="ellipse;whiteSpace=wrap;html=1;align=center;" vertex="1" parent="1">
          <mxGeometry x="105" y="190" width="70" height="30" as="geometry" />
        </mxCell>
        <mxCell id="cfvaVu8GxkP0LwsnPaUr-11" style="edgeStyle=orthogonalEdgeStyle;rounded=0;orthogonalLoop=1;jettySize=auto;html=1;endArrow=none;endFill=0;" edge="1" parent="1" source="cfvaVu8GxkP0LwsnPaUr-9" target="cfvaVu8GxkP0LwsnPaUr-1">
          <mxGeometry relative="1" as="geometry" />
        </mxCell>
        <mxCell id="cfvaVu8GxkP0LwsnPaUr-9" value="apelllido_p" style="ellipse;whiteSpace=wrap;html=1;align=center;" vertex="1" parent="1">
          <mxGeometry x="105" y="140" width="70" height="30" as="geometry" />
        </mxCell>
        <mxCell id="cfvaVu8GxkP0LwsnPaUr-12" style="edgeStyle=orthogonalEdgeStyle;rounded=0;orthogonalLoop=1;jettySize=auto;html=1;endArrow=none;endFill=0;" edge="1" parent="1" source="cfvaVu8GxkP0LwsnPaUr-10" target="cfvaVu8GxkP0LwsnPaUr-1">
          <mxGeometry relative="1" as="geometry" />
        </mxCell>
        <mxCell id="cfvaVu8GxkP0LwsnPaUr-10" value="apelllido_m" style="ellipse;whiteSpace=wrap;html=1;align=center;" vertex="1" parent="1">
          <mxGeometry x="250" y="90" width="70" height="30" as="geometry" />
        </mxCell>
        <mxCell id="cfvaVu8GxkP0LwsnPaUr-13" value="pasword" style="ellipse;whiteSpace=wrap;html=1;align=center;" vertex="1" parent="1">
          <mxGeometry x="360" y="110" width="70" height="30" as="geometry" />
        </mxCell>
        <mxCell id="cfvaVu8GxkP0LwsnPaUr-14" style="edgeStyle=orthogonalEdgeStyle;rounded=0;orthogonalLoop=1;jettySize=auto;html=1;entryX=0.681;entryY=-0.033;entryDx=0;entryDy=0;entryPerimeter=0;endArrow=none;endFill=0;" edge="1" parent="1" source="cfvaVu8GxkP0LwsnPaUr-13" target="cfvaVu8GxkP0LwsnPaUr-1">
          <mxGeometry relative="1" as="geometry" />
        </mxCell>
        <mxCell id="cfvaVu8GxkP0LwsnPaUr-16" style="edgeStyle=orthogonalEdgeStyle;rounded=0;orthogonalLoop=1;jettySize=auto;html=1;endArrow=none;endFill=0;entryX=0.75;entryY=0;entryDx=0;entryDy=0;" edge="1" parent="1" source="cfvaVu8GxkP0LwsnPaUr-15" target="cfvaVu8GxkP0LwsnPaUr-1">
          <mxGeometry relative="1" as="geometry">
            <mxPoint x="300" y="230" as="targetPoint" />
          </mxGeometry>
        </mxCell>
        <mxCell id="cfvaVu8GxkP0LwsnPaUr-15" value="username" style="ellipse;whiteSpace=wrap;html=1;align=center;" vertex="1" parent="1">
          <mxGeometry x="370" y="160" width="70" height="30" as="geometry" />
        </mxCell>
        <mxCell id="cfvaVu8GxkP0LwsnPaUr-18" style="edgeStyle=orthogonalEdgeStyle;rounded=0;orthogonalLoop=1;jettySize=auto;html=1;entryX=0.75;entryY=0;entryDx=0;entryDy=0;endArrow=none;endFill=0;" edge="1" parent="1" source="cfvaVu8GxkP0LwsnPaUr-17" target="cfvaVu8GxkP0LwsnPaUr-1">
          <mxGeometry relative="1" as="geometry" />
        </mxCell>
        <mxCell id="cfvaVu8GxkP0LwsnPaUr-17" value="id_usuario" style="ellipse;whiteSpace=wrap;html=1;align=center;" vertex="1" parent="1">
          <mxGeometry x="370" y="210" width="70" height="30" as="geometry" />
        </mxCell>
        <mxCell id="cfvaVu8GxkP0LwsnPaUr-20" style="edgeStyle=orthogonalEdgeStyle;rounded=0;orthogonalLoop=1;jettySize=auto;html=1;entryX=1;entryY=0.75;entryDx=0;entryDy=0;endArrow=none;endFill=0;" edge="1" parent="1" source="cfvaVu8GxkP0LwsnPaUr-19" target="cfvaVu8GxkP0LwsnPaUr-1">
          <mxGeometry relative="1" as="geometry" />
        </mxCell>
        <mxCell id="cfvaVu8GxkP0LwsnPaUr-19" value="gmail" style="ellipse;whiteSpace=wrap;html=1;align=center;" vertex="1" parent="1">
          <mxGeometry x="370" y="250" width="70" height="30" as="geometry" />
        </mxCell>
        <mxCell id="cfvaVu8GxkP0LwsnPaUr-27" style="edgeStyle=orthogonalEdgeStyle;rounded=0;orthogonalLoop=1;jettySize=auto;html=1;entryX=0.25;entryY=0;entryDx=0;entryDy=0;endArrow=none;endFill=0;" edge="1" parent="1" source="cfvaVu8GxkP0LwsnPaUr-21" target="cfvaVu8GxkP0LwsnPaUr-23">
          <mxGeometry relative="1" as="geometry" />
        </mxCell>
        <mxCell id="cfvaVu8GxkP0LwsnPaUr-21" value="id_Tusuario" style="ellipse;whiteSpace=wrap;html=1;align=center;fontStyle=4;" vertex="1" parent="1">
          <mxGeometry x="560" y="110" width="70" height="30" as="geometry" />
        </mxCell>
        <mxCell id="cfvaVu8GxkP0LwsnPaUr-23" value="&lt;font style=&quot;vertical-align: inherit;&quot;&gt;&lt;font style=&quot;vertical-align: inherit;&quot;&gt;Tipo user&lt;br&gt;&lt;/font&gt;&lt;/font&gt;" style="whiteSpace=wrap;html=1;align=center;" vertex="1" parent="1">
          <mxGeometry x="580" y="235" width="70" height="20" as="geometry" />
        </mxCell>
        <mxCell id="cfvaVu8GxkP0LwsnPaUr-28" style="edgeStyle=orthogonalEdgeStyle;rounded=0;orthogonalLoop=1;jettySize=auto;html=1;endArrow=none;endFill=0;" edge="1" parent="1" source="cfvaVu8GxkP0LwsnPaUr-24" target="cfvaVu8GxkP0LwsnPaUr-23">
          <mxGeometry relative="1" as="geometry" />
        </mxCell>
        <mxCell id="cfvaVu8GxkP0LwsnPaUr-24" value="descripciÃ³n&amp;nbsp;" style="ellipse;whiteSpace=wrap;html=1;align=center;" vertex="1" parent="1">
          <mxGeometry x="500" y="180" width="70" height="30" as="geometry" />
        </mxCell>
        <mxCell id="cfvaVu8GxkP0LwsnPaUr-26" style="edgeStyle=orthogonalEdgeStyle;rounded=0;orthogonalLoop=1;jettySize=auto;html=1;endArrow=none;endFill=0;" edge="1" parent="1" source="cfvaVu8GxkP0LwsnPaUr-25" target="cfvaVu8GxkP0LwsnPaUr-23">
          <mxGeometry relative="1" as="geometry" />
        </mxCell>
        <mxCell id="cfvaVu8GxkP0LwsnPaUr-25" value="nombreT" style="ellipse;whiteSpace=wrap;html=1;align=center;" vertex="1" parent="1">
          <mxGeometry x="650" y="180" width="70" height="30" as="geometry" />
        </mxCell>
        <mxCell id="cfvaVu8GxkP0LwsnPaUr-31" style="edgeStyle=orthogonalEdgeStyle;rounded=0;orthogonalLoop=1;jettySize=auto;html=1;entryX=0.5;entryY=1;entryDx=0;entryDy=0;" edge="1" parent="1" source="cfvaVu8GxkP0LwsnPaUr-29" target="cfvaVu8GxkP0LwsnPaUr-1">
          <mxGeometry relative="1" as="geometry">
            <mxPoint x="270" y="280" as="targetPoint" />
          </mxGeometry>
        </mxCell>
        <mxCell id="cfvaVu8GxkP0LwsnPaUr-29" value="tiene&amp;nbsp;" style="shape=rhombus;perimeter=rhombusPerimeter;whiteSpace=wrap;html=1;align=center;" vertex="1" parent="1">
          <mxGeometry x="400" y="320" width="120" height="60" as="geometry" />
        </mxCell>
        <mxCell id="cfvaVu8GxkP0LwsnPaUr-30" style="edgeStyle=orthogonalEdgeStyle;rounded=0;orthogonalLoop=1;jettySize=auto;html=1;entryX=0.419;entryY=0.933;entryDx=0;entryDy=0;entryPerimeter=0;" edge="1" parent="1" source="cfvaVu8GxkP0LwsnPaUr-29" target="cfvaVu8GxkP0LwsnPaUr-23">
          <mxGeometry relative="1" as="geometry" />
        </mxCell>
      </root>
    </mxGraphModel>
  </diagram>
</mxfile>
